<svg xmlns="http://www.w3.org/2000/svg" width="69.43" height="141.76" viewBox="0 0 69.43 141.76"><title>Asset 1</title><path d="M38,2.77,34.72,0,31.47,2.77a89.44,89.44,0,0,0,0,136.22l3.25,2.77L38,139A89.4,89.4,0,0,0,69.43,70.88,89.4,89.4,0,0,0,38,2.77ZM54.09,42.29,39.72,56.66V18.53A79.49,79.49,0,0,1,54.09,42.29ZM29.72,18.53v70L10.05,68.86A79.27,79.27,0,0,1,29.72,18.53ZM11.12,84.07l18.6,18.6v20.56A79.35,79.35,0,0,1,11.12,84.07Zm28.6,39.16V70.8L57.4,53.12a79.61,79.61,0,0,1,2,17.76A79.34,79.34,0,0,1,39.72,123.23Z" fill="#231f20"/></svg>